<svg xmlns="http://www.w3.org/2000/svg" className="w-7 md:w-8" xmlnsXlink="http://www.w3.org/1999/xlink" version="1.1" id="Layer_1" x="0px" y="0px" width="100%" viewBox="0 0 64 64" enableBackground="new 0 0 64 64" xmlSpace="preserve">
   <path fill="#000000" opacity="1.000000" stroke="none" d=" M65.000000,23.999840   C65.000000,37.999893 65.000000,51.499889 65.000000,64.999908   C43.666710,64.999939 22.333418,64.999939 1.000096,64.999969   C1.000064,43.666714 1.000064,22.333429 1.000032,1.000107   C22.333281,1.000072 43.666561,1.000072 64.999924,1.000036   C65.000000,8.499928 65.000000,15.999856 65.000000,23.999840  M5.023067,28.929371   C5.015444,34.252411 5.000866,39.575447 5.001863,44.898487   C5.003277,52.450943 7.342597,54.846081 14.993012,55.905602   C15.020167,59.203968 14.326735,62.986797 19.491701,62.993958   C31.811386,63.011036 44.135822,63.160084 56.444923,62.798855   C58.004402,62.753086 60.771141,59.996643 60.800110,58.455116   C61.078346,43.648697 60.888580,28.833483 60.844074,13.344234   C59.581764,12.079455 58.403305,10.714646 57.039230,9.571273   C54.412502,7.369533 51.680775,5.293058 48.067245,3.012063   C38.739979,3.008056 29.412346,3.050240 20.085634,2.976293   C16.573915,2.948450 14.928703,4.424450 14.971558,8.008210   C15.031247,12.999765 14.894420,17.993671 13.966875,22.997555   C10.542261,23.804148 4.706294,20.367535 5.023067,28.929371  z" />
   <path fill="#FFF5F5" opacity="1.000000" stroke="none" d=" M60.832859,14.020788   C60.888580,28.833483 61.078346,43.648697 60.800110,58.455116   C60.771141,59.996643 58.004402,62.753086 56.444923,62.798855   C44.135822,63.160084 31.811386,63.011036 19.491701,62.993958   C14.326735,62.986797 15.020167,59.203968 15.265408,55.201622   C26.342369,54.379959 37.146862,54.191753 47.951538,54.180672   C52.047421,54.176472 54.202343,52.684040 54.033344,48.318066   C53.878937,44.329006 53.930351,40.327705 54.019760,36.334682   C54.110264,32.292789 52.085857,30.632729 48.217911,30.686520   C44.223671,30.742065 40.226105,30.775606 36.233425,30.678127   C29.132977,30.504776 22.035118,30.225330 14.961422,29.551956   C14.938347,27.071289 14.890023,25.028931 14.841700,22.986570   C14.894420,17.993671 15.031247,12.999765 14.971558,8.008210   C14.928703,4.424450 16.573915,2.948450 20.085634,2.976293   C29.412346,3.050240 38.739979,3.008056 48.532913,3.539495   C49.008968,13.977193 49.008968,13.976940 58.853043,14.003052   C59.512993,14.004802 60.172920,14.014687 60.832859,14.020788  M24.192659,17.022146   C23.608589,17.460697 23.024519,17.899248 22.440449,18.337799   C23.372084,18.885418 24.290302,19.877659 25.237597,19.906240   C30.217632,20.056494 35.208759,20.064333 40.187099,19.880146   C41.365955,19.836531 42.510448,18.864269 43.670750,18.319181   C43.554054,17.880409 43.437359,17.441637 43.320663,17.002865   C37.232212,17.002865 31.143763,17.002865 24.192659,17.022146  M37.210251,24.999975   C39.342834,24.592955 41.475418,24.185936 43.608006,23.778915   C43.503792,23.345396 43.399578,22.911879 43.295364,22.478359   C36.372883,22.478359 29.450399,22.478359 22.527916,22.478359   C26.715918,26.385160 31.698685,24.362719 37.210251,24.999975  z" />
   <path fill="#FFBB34" opacity="1.000000" stroke="none" d=" M14.936175,29.990265   C22.035118,30.225330 29.132977,30.504776 36.233425,30.678127   C40.226105,30.775606 44.223671,30.742065 48.217911,30.686520   C52.085857,30.632729 54.110264,32.292789 54.019760,36.334682   C53.930351,40.327705 53.878937,44.329006 54.033344,48.318066   C54.202343,52.684040 52.047421,54.176472 47.951538,54.180672   C37.146862,54.191753 26.342369,54.379959 15.223854,54.781792   C7.342597,54.846081 5.003277,52.450943 5.001863,44.898487   C5.000866,39.575447 5.015444,34.252411 5.387497,28.649239   C8.372556,31.406662 11.453617,31.835752 14.936175,29.990265  M34.109219,48.535137   C34.499214,47.557777 35.139977,46.602192 35.227135,45.598530   C35.409962,43.493187 35.252445,41.360653 35.334713,39.243172   C35.372688,38.265736 35.645596,37.297432 35.811981,36.324989   C35.363060,36.026878 34.914139,35.728767 34.465218,35.430656   C33.851444,36.720352 33.237671,38.010048 32.653198,39.238171   C31.001631,37.783794 29.981548,36.885502 29.187378,36.186150   C29.187378,40.470177 29.187378,44.638565 29.187378,48.989643   C30.166367,48.057350 31.208950,47.064491 32.297909,46.027470   C32.870842,46.920090 33.222317,47.467678 34.109219,48.535137  M24.185740,41.155460   C22.757633,40.585926 21.329525,40.016388 18.737902,38.982834   C21.817329,38.099277 23.350054,37.659508 24.882778,37.219734   C24.810522,36.914417 24.738268,36.609097 24.666012,36.303780   C22.626968,36.303780 20.587925,36.303780 18.005054,36.303780   C18.005054,39.745697 17.826820,43.042328 18.095959,46.302013   C18.198416,47.542923 19.141918,49.508541 20.031273,49.713150   C21.547716,50.062035 23.324167,49.280769 25.951212,48.797832   C22.995913,46.897717 21.276463,45.792191 19.093904,44.388908   C21.820158,43.086941 23.285873,42.386963 24.185740,41.155460  M41.178356,39.284222   C42.709019,38.539345 44.239677,37.794472 46.954491,36.473343   C43.668770,36.473343 41.580379,36.473343 39.011211,36.473343   C39.011211,39.931252 38.818119,43.381859 39.121445,46.788261   C39.220581,47.901588 40.495457,49.630611 41.438751,49.780453   C42.873238,50.008324 44.487438,49.104832 46.452084,48.564472   C43.787766,46.843975 42.158104,45.791611 39.374050,43.993793   C42.729130,43.149864 44.303505,42.753849 46.834759,42.117146   C44.408421,41.127827 42.990017,40.549488 41.178356,39.284222  z" />
   <path fill="#EBE6F4" opacity="1.000000" stroke="none" d=" M60.838467,13.682511   C60.172920,14.014687 59.512993,14.004802 58.853043,14.003052   C49.008968,13.976940 49.008968,13.977193 48.995583,3.615782   C51.680775,5.293058 54.412502,7.369533 57.039230,9.571273   C58.403305,10.714646 59.581764,12.079455 60.838467,13.682511  z" />
   <path fill="#FF884D" opacity="1.000000" stroke="none" d=" M14.961422,29.551956   C11.453617,31.835752 8.372556,31.406662 5.456747,28.185295   C4.706294,20.367535 10.542261,23.804148 14.404287,22.992062   C14.890023,25.028931 14.938347,27.071289 14.961422,29.551956  z" />
   <path fill="#D3CBE4" opacity="1.000000" stroke="none" d=" M24.623985,17.012505   C31.143763,17.002865 37.232212,17.002865 43.320663,17.002865   C43.437359,17.441637 43.554054,17.880409 43.670750,18.319181   C42.510448,18.864269 41.365955,19.836531 40.187099,19.880146   C35.208759,20.064333 30.217632,20.056494 25.237597,19.906240   C24.290302,19.877659 23.372084,18.885418 22.440449,18.337799   C23.024519,17.899248 23.608589,17.460697 24.623985,17.012505  z" />
   <path fill="#D3CBE4" opacity="1.000000" stroke="none" d=" M36.748131,24.999989   C31.698685,24.362719 26.715918,26.385160 22.527916,22.478359   C29.450399,22.478359 36.372883,22.478359 43.295364,22.478359   C43.399578,22.911879 43.503792,23.345396 43.608006,23.778915   C41.475418,24.185936 39.342834,24.592955 36.748131,24.999989  z" />
   <path fill="#FBF2F0" opacity="1.000000" stroke="none" d=" M33.841507,48.275204   C33.222317,47.467678 32.870842,46.920090 32.297909,46.027470   C31.208950,47.064491 30.166367,48.057350 29.187378,48.989643   C29.187378,44.638565 29.187378,40.470177 29.187378,36.186150   C29.981548,36.885502 31.001631,37.783794 32.653198,39.238171   C33.237671,38.010048 33.851444,36.720352 34.465218,35.430656   C34.914139,35.728767 35.363060,36.026878 35.811981,36.324989   C35.645596,37.297432 35.372688,38.265736 35.334713,39.243172   C35.252445,41.360653 35.409962,43.493187 35.227135,45.598530   C35.139977,46.602192 34.499214,47.557777 33.841507,48.275204  z" />
   <path fill="#FBF3F2" opacity="1.000000" stroke="none" d=" M24.468664,41.421227   C23.285873,42.386963 21.820158,43.086941 19.093904,44.388908   C21.276463,45.792191 22.995913,46.897717 25.951212,48.797832   C23.324167,49.280769 21.547716,50.062035 20.031273,49.713150   C19.141918,49.508541 18.198416,47.542923 18.095959,46.302013   C17.826820,43.042328 18.005054,39.745697 18.005054,36.303780   C20.587925,36.303780 22.626968,36.303780 24.666012,36.303780   C24.738268,36.609097 24.810522,36.914417 24.882778,37.219734   C23.350054,37.659508 21.817329,38.099277 18.737902,38.982834   C21.329525,40.016388 22.757633,40.585926 24.468664,41.421227  z" />
   <path fill="#FBF3F3" opacity="1.000000" stroke="none" d=" M41.374985,39.627686   C42.990017,40.549488 44.408421,41.127827 46.834759,42.117146   C44.303505,42.753849 42.729130,43.149864 39.374050,43.993793   C42.158104,45.791611 43.787766,46.843975 46.452084,48.564472   C44.487438,49.104832 42.873238,50.008324 41.438751,49.780453   C40.495457,49.630611 39.220581,47.901588 39.121445,46.788261   C38.818119,43.381859 39.011211,39.931252 39.011211,36.473343   C41.580379,36.473343 43.668770,36.473343 46.954491,36.473343   C44.239677,37.794472 42.709019,38.539345 41.374985,39.627686  z" />
</svg>